<?xml version="1.0" standalone="no"?>
<!DOCTYPE svg PUBLIC "-//W3C//DTD SVG 1.1//EN" "http://www.w3.org/Graphics/SVG/1.1/DTD/svg11.dtd" >
<svg xmlns="http://www.w3.org/2000/svg" xmlns:xlink="http://www.w3.org/1999/xlink" version="1.1">
<metadata>
Created by FontForge 20180930 at Mon Oct  8 19:04:59 2018
 By root
Cyberspace Raceway (c) Chequered Ink Ltd. 2018
</metadata>
<defs>
<font id="Cyberspace-Raceway-Back" horiz-adv-x="3855" >
  <font-face 
    font-family="Cyberspace Raceway Back"
    font-weight="400"
    font-stretch="normal"
    units-per-em="4096"
    panose-1="0 0 4 0 0 0 0 0 0 0"
    ascent="4096"
    descent="0"
    x-height="4096"
    cap-height="4096"
    bbox="-240 -1445 8192 5059"
    underline-thickness="204"
    underline-position="307"
    unicode-range="U+0020-2122"
  />
    <missing-glyph />
    <glyph glyph-name="space" unicode=" " horiz-adv-x="1686" 
 />
    <glyph glyph-name="exclam" unicode="!" horiz-adv-x="1445" 
d="M0 0v1204h1204v-1204h-1204zM0 1445v2651h1204v-2651h-1204z" />
    <glyph glyph-name="quotedbl" unicode="&#x22;" horiz-adv-x="2891" 
d="M0 2409v1687h1204v-1687h-1204zM1445 2409v1687h1205v-1687h-1205z" />
    <glyph glyph-name="numbersign" unicode="#" 
d="M1927 1686v723h-241v-723h241zM481 0v481h-481v1205h481v723h-481v1205h481v482h1205v-482h241v482h1205v-482h482v-1205h-482v-723h482v-1205h-482v-481h-1205v481h-241v-481h-1205z" />
    <glyph glyph-name="dollar" unicode="$" 
d="M1204 -240v240h-964v1204h2169v241h-1687l-722 723v1205l722 723h482v240h1205v-240h964v-1205h-2169v-241h1687l723 -723v-1205l-723 -722h-482v-240h-1205z" />
    <glyph glyph-name="percent" unicode="%" 
d="M2409 0v1204h1205v-1204h-1205zM0 2891v1205h1204v-1205h-1204zM0 0v1204l2409 2410v482h1205v-1205l-2410 -2410v-481h-1204z" />
    <glyph glyph-name="ampersand" unicode="&#x26;" 
d="M1445 -240v240h-723l-722 722v964l361 362l-120 120h-1l-240 241v964l722 723h723v240h1205v-240h964v-1205h-2410v-241h1446v-1205h-1446v-241h2410v-1204h-964v-240h-1205z" />
    <glyph glyph-name="quotesingle" unicode="'" horiz-adv-x="1445" 
d="M0 2409v1687h1204v-1687h-1204z" />
    <glyph glyph-name="parenleft" unicode="(" horiz-adv-x="1927" 
d="M722 -240l-722 721v3133l722 722h964v-1204h-482v-2169h482v-1203h-964z" />
    <glyph glyph-name="parenright" unicode=")" horiz-adv-x="1927" 
d="M0 -240v1203h481v2169h-481v1204h963l723 -722v-3133l-723 -721h-963z" />
    <glyph glyph-name="asterisk" unicode="*" 
d="M2409 963v2169h-1205v-2169h1205zM0 -240v4576h3614v-4576h-3614z" />
    <glyph glyph-name="plus" unicode="+" 
d="M1204 240v1205h-1204v1205h1204v1205h1205v-1205h1205v-1205h-1205v-1205h-1205z" />
    <glyph glyph-name="comma" unicode="," horiz-adv-x="1445" 
d="M0 -481v1685h1204v-1685h-1204z" />
    <glyph glyph-name="hyphen" unicode="-" 
d="M0 1445v1205h3614v-1205h-3614z" />
    <glyph glyph-name="period" unicode="." horiz-adv-x="1445" 
d="M0 0v1204h1204v-1204h-1204z" />
    <glyph glyph-name="slash" unicode="/" horiz-adv-x="2650" 
d="M0 0v1927l1204 1205v964h1205v-1687l-1205 -1205v-1204h-1204z" />
    <glyph glyph-name="zero" unicode="0" 
d="M2409 1204v1687h-1205v-1687h1205zM722 0l-722 722v2651l722 723h2169l723 -723v-2651l-723 -722h-2169z" />
    <glyph glyph-name="one" unicode="1" horiz-adv-x="2168" 
d="M722 0v2891h-722v482l722 723h1205v-4096h-1205z" />
    <glyph glyph-name="two" unicode="2" 
d="M0 0v1927l722 723h1687v241h-2169v1205h2651l723 -723v-1205l-723 -723h-1687v-241h2410v-1204h-3614z" />
    <glyph glyph-name="three" unicode="3" 
d="M0 0v1204h2409v241h-1446v1205h1446v241h-2409v1205h2891l723 -723v-964l-241 -241h-1l-120 -120l362 -362v-964l-723 -722h-2891z" />
    <glyph glyph-name="four" unicode="4" 
d="M2409 0v1445h-1687l-722 723v1928h1204v-1446h1205v1446h1205v-4096h-1205z" />
    <glyph glyph-name="five" unicode="5" 
d="M0 0v1204h2409v241h-2409v2651h3373v-1205h-2169v-241h1687l723 -723v-1205l-723 -722h-2891z" />
    <glyph glyph-name="six" unicode="6" 
d="M2409 1204v241h-1205v-241h1205zM722 0l-722 722v2651l722 723h2651v-1205h-2169v-241h1687l723 -723v-1205l-723 -722h-2169z" />
    <glyph glyph-name="seven" unicode="7" 
d="M2409 0v2891h-2409v1205h3614v-4096h-1205z" />
    <glyph glyph-name="eight" unicode="8" 
d="M2409 1204v241h-1205v-241h1205zM2409 2650v241h-1205v-241h1205zM722 0l-722 722v964l361 362l-120 120h-1l-240 241v964l722 723h2169l723 -723v-964l-241 -241h-1l-120 -120l362 -362v-964l-723 -722h-2169z" />
    <glyph glyph-name="nine" unicode="9" 
d="M2409 2650v241h-1205v-241h1205zM240 0v1204h2169v241h-1687l-722 723v1205l722 723h2169l723 -723v-2651l-723 -722h-2651z" />
    <glyph glyph-name="colon" unicode=":" horiz-adv-x="1445" 
d="M0 0v1204h1204v-1204h-1204zM0 2409v1205h1204v-1205h-1204z" />
    <glyph glyph-name="semicolon" unicode=";" horiz-adv-x="1445" 
d="M0 -481v1685h1204v-1685h-1204zM0 2409v1205h1204v-1205h-1204z" />
    <glyph glyph-name="less" unicode="&#x3c;" horiz-adv-x="2409" 
d="M1204 240l-1204 1205v1205l1204 1205h964v-1205h-482l-602 -602l119 -121h1l482 -482h482v-1205h-964z" />
    <glyph glyph-name="equal" unicode="=" 
d="M0 722v1205h3614v-1205h-3614zM0 2168v1205h3614v-1205h-3614z" />
    <glyph glyph-name="greater" unicode="&#x3e;" horiz-adv-x="2409" 
d="M0 240v1205h481l482 482h1l120 121l-603 602h-481v1205h963l1205 -1205v-1205l-1205 -1205h-963z" />
    <glyph glyph-name="question" unicode="?" 
d="M481 0v1204h1205v-1204h-1205zM481 1445v482l723 723h1205v241h-2409v1205h2891l723 -723v-1205l-723 -723h-2410z" />
    <glyph glyph-name="at" unicode="@" horiz-adv-x="4336" 
d="M722 0l-722 722v2651l722 723h2651l723 -723v-1205l-723 -723h-1928v1205h1446v241h-1687v-1687h2651v-1204h-3133z" />
    <glyph glyph-name="A" unicode="A" 
d="M2409 2650v241h-1205v-241h1205zM0 0v3373l722 723h2169l723 -723v-3373h-1205v1445h-1205v-1445h-1204z" />
    <glyph glyph-name="B" unicode="B" 
d="M2409 1204v241h-1205v-241h1205zM2409 2650v241h-1205v-241h1205zM0 0v4096h2891l723 -723v-964l-241 -241h-1l-120 -120l362 -362v-964l-723 -722h-2891z" />
    <glyph glyph-name="C" unicode="C" 
d="M722 0l-722 722v2651l722 723h2892v-1205h-2410v-1687h2410v-1204h-2892z" />
    <glyph glyph-name="D" unicode="D" 
d="M2409 1204v1687h-1205v-1687h1205zM0 0v4096h2891l723 -723v-2651l-723 -722h-2891z" />
    <glyph glyph-name="E" unicode="E" 
d="M0 0v4096h3614v-1205h-2410v-241h1446v-1205h-1446v-241h2410v-1204h-3614z" />
    <glyph glyph-name="F" unicode="F" 
d="M0 0v4096h3614v-1205h-2410v-241h1446v-1205h-1446v-1445h-1204z" />
    <glyph glyph-name="G" unicode="G" 
d="M722 0l-722 722v2651l722 723h2892v-1205h-2410v-1687h1205v241h-482v1205h1687v-2650h-2892z" />
    <glyph glyph-name="H" unicode="H" 
d="M0 0v4096h1204v-1446h1205v1446h1205v-4096h-1205v1445h-1205v-1445h-1204z" />
    <glyph glyph-name="I" unicode="I" horiz-adv-x="2409" 
d="M0 0v1204h481v1687h-481v1205h2168v-1205h-482v-1687h482v-1204h-2168z" />
    <glyph glyph-name="J" unicode="J" 
d="M0 0v1204h2409v1687h-1205v1205h2410v-3374l-723 -722h-2891z" />
    <glyph glyph-name="K" unicode="K" 
d="M0 0v4096h1204v-1446h1205v1446h1205v-1687l-241 -241h-1l-120 -120l362 -362v-1686h-1205v1445h-1205v-1445h-1204z" />
    <glyph glyph-name="L" unicode="L" 
d="M0 0v4096h1204v-2892h2410v-1204h-3614z" />
    <glyph glyph-name="M" unicode="M" horiz-adv-x="4818" 
d="M0 0v3373l722 723h1205l241 -241v-1l120 -120l362 362h1205l722 -723v-3373h-1204v2891h-482v-2891h-1205v2891h-482v-2891h-1204z" />
    <glyph glyph-name="N" unicode="N" 
d="M0 0v3373l722 723h2169l723 -723v-3373h-1205v2891h-1205v-2891h-1204z" />
    <glyph glyph-name="O" unicode="O" 
d="M2409 1204v1687h-1205v-1687h1205zM722 0l-722 722v2651l722 723h2169l723 -723v-2651l-723 -722h-2169z" />
    <glyph glyph-name="P" unicode="P" 
d="M2409 2650v241h-1205v-241h1205zM0 0v4096h2891l723 -723v-1205l-723 -723h-1687v-1445h-1204z" />
    <glyph glyph-name="Q" unicode="Q" 
d="M2168 1204v241h241v1446h-1205v-1687h964zM722 0l-722 722v2651l722 723h2169l723 -723v-1928h-1l-120 -120l121 -121v-1204h-1205l-121 120l-120 -120h-1446z" />
    <glyph glyph-name="R" unicode="R" 
d="M2409 2650v241h-1205v-241h1205zM0 0v4096h2891l723 -723v-964l-241 -241h-1l-120 -120l362 -362v-1686h-1205v1445h-1205v-1445h-1204z" />
    <glyph glyph-name="S" unicode="S" 
d="M240 0v1204h2169v241h-1687l-722 723v1205l722 723h2651v-1205h-2169v-241h1687l723 -723v-1205l-723 -722h-2651z" />
    <glyph glyph-name="T" unicode="T" 
d="M1204 0v2891h-1204v1205h3614v-1205h-1205v-2891h-1205z" />
    <glyph glyph-name="U" unicode="U" 
d="M722 0l-722 722v3374h1204v-2892h1205v2892h1205v-3374l-723 -722h-2169z" />
    <glyph glyph-name="V" unicode="V" 
d="M1204 0l-1204 1204v2892h1204v-2410l482 -482v-1l121 -119l602 602v2410h1205v-2892l-1205 -1204h-1205z" />
    <glyph glyph-name="W" unicode="W" horiz-adv-x="4818" 
d="M722 0l-722 722v3374h1204v-2892h482v2892h1205v-2892h482v2892h1204v-3374l-722 -722h-1205l-362 361l-120 -120v-1l-241 -240h-1205z" />
    <glyph glyph-name="X" unicode="X" 
d="M0 0v1686l240 241h1l120 121l-361 361v1687h1204v-1446h1205v1446h1205v-1687l-241 -241h-1l-120 -120l362 -362v-1686h-1205v1445h-1205v-1445h-1204z" />
    <glyph glyph-name="Y" unicode="Y" 
d="M1204 0v1204l-1204 1205v1687h1204v-1205l482 -482v-1l121 -120l602 603v1205h1205v-1687l-1205 -1205v-1204h-1205z" />
    <glyph glyph-name="Z" unicode="Z" 
d="M0 0v1204l1686 1687h-1686v1205h3614v-1205l-1687 -1687h1687v-1204h-3614z" />
    <glyph glyph-name="bracketleft" unicode="[" horiz-adv-x="1927" 
d="M0 -240v4576h1686v-1204h-482v-2169h482v-1203h-1686z" />
    <glyph glyph-name="backslash" unicode="\" horiz-adv-x="2650" 
d="M1204 0v1204l-1204 1205v1687h1204v-964l1205 -1205v-1927h-1205z" />
    <glyph glyph-name="bracketright" unicode="]" horiz-adv-x="1927" 
d="M0 -240v1203h481v2169h-481v1204h1686v-4576h-1686z" />
    <glyph glyph-name="asciicircum" unicode="^" 
d="M0 1927v964l1204 1205h1205l1205 -1205v-964h-1205v482l-602 602l-121 -119v-1l-482 -482v-482h-1204z" />
    <glyph glyph-name="underscore" unicode="_" 
d="M0 0v1204h3614v-1204h-3614z" />
    <glyph glyph-name="grave" unicode="`" horiz-adv-x="1927" 
d="M722 3373l-722 723h963l723 -723h-964z" />
    <glyph glyph-name="a" unicode="a" 
d="M2409 2650v241h-1205v-241h1205zM0 0v3373l722 723h2169l723 -723v-3373h-1205v1445h-1205v-1445h-1204z" />
    <glyph glyph-name="b" unicode="b" 
d="M2409 1204v241h-1205v-241h1205zM2409 2650v241h-1205v-241h1205zM0 0v4096h2891l723 -723v-964l-241 -241h-1l-120 -120l362 -362v-964l-723 -722h-2891z" />
    <glyph glyph-name="c" unicode="c" 
d="M722 0l-722 722v2651l722 723h2892v-1205h-2410v-1687h2410v-1204h-2892z" />
    <glyph glyph-name="d" unicode="d" 
d="M2409 1204v1687h-1205v-1687h1205zM0 0v4096h2891l723 -723v-2651l-723 -722h-2891z" />
    <glyph glyph-name="e" unicode="e" 
d="M0 0v4096h3614v-1205h-2410v-241h1446v-1205h-1446v-241h2410v-1204h-3614z" />
    <glyph glyph-name="f" unicode="f" 
d="M0 0v4096h3614v-1205h-2410v-241h1446v-1205h-1446v-1445h-1204z" />
    <glyph glyph-name="g" unicode="g" 
d="M722 0l-722 722v2651l722 723h2892v-1205h-2410v-1687h1205v241h-482v1205h1687v-2650h-2892z" />
    <glyph glyph-name="h" unicode="h" 
d="M0 0v4096h1204v-1446h1205v1446h1205v-4096h-1205v1445h-1205v-1445h-1204z" />
    <glyph glyph-name="i" unicode="i" horiz-adv-x="2409" 
d="M0 0v1204h481v1687h-481v1205h2168v-1205h-482v-1687h482v-1204h-2168z" />
    <glyph glyph-name="j" unicode="j" 
d="M0 0v1204h2409v1687h-1205v1205h2410v-3374l-723 -722h-2891z" />
    <glyph glyph-name="k" unicode="k" 
d="M0 0v4096h1204v-1446h1205v1446h1205v-1687l-241 -241h-1l-120 -120l362 -362v-1686h-1205v1445h-1205v-1445h-1204z" />
    <glyph glyph-name="l" unicode="l" 
d="M0 0v4096h1204v-2892h2410v-1204h-3614z" />
    <glyph glyph-name="m" unicode="m" horiz-adv-x="4818" 
d="M0 0v3373l722 723h1205l241 -241v-1l120 -120l362 362h1205l722 -723v-3373h-1204v2891h-482v-2891h-1205v2891h-482v-2891h-1204z" />
    <glyph glyph-name="n" unicode="n" 
d="M0 0v3373l722 723h2169l723 -723v-3373h-1205v2891h-1205v-2891h-1204z" />
    <glyph glyph-name="o" unicode="o" 
d="M2409 1204v1687h-1205v-1687h1205zM722 0l-722 722v2651l722 723h2169l723 -723v-2651l-723 -722h-2169z" />
    <glyph glyph-name="p" unicode="p" 
d="M2409 2650v241h-1205v-241h1205zM0 0v4096h2891l723 -723v-1205l-723 -723h-1687v-1445h-1204z" />
    <glyph glyph-name="q" unicode="q" 
d="M2168 1204v241h241v1446h-1205v-1687h964zM722 0l-722 722v2651l722 723h2169l723 -723v-1928h-1l-120 -120l121 -121v-1204h-1205l-121 120l-120 -120h-1446z" />
    <glyph glyph-name="r" unicode="r" 
d="M2409 2650v241h-1205v-241h1205zM0 0v4096h2891l723 -723v-964l-241 -241h-1l-120 -120l362 -362v-1686h-1205v1445h-1205v-1445h-1204z" />
    <glyph glyph-name="s" unicode="s" 
d="M240 0v1204h2169v241h-1687l-722 723v1205l722 723h2651v-1205h-2169v-241h1687l723 -723v-1205l-723 -722h-2651z" />
    <glyph glyph-name="t" unicode="t" 
d="M1204 0v2891h-1204v1205h3614v-1205h-1205v-2891h-1205z" />
    <glyph glyph-name="u" unicode="u" 
d="M722 0l-722 722v3374h1204v-2892h1205v2892h1205v-3374l-723 -722h-2169z" />
    <glyph glyph-name="v" unicode="v" 
d="M1204 0l-1204 1204v2892h1204v-2410l482 -482v-1l121 -119l602 602v2410h1205v-2892l-1205 -1204h-1205z" />
    <glyph glyph-name="w" unicode="w" horiz-adv-x="4818" 
d="M722 0l-722 722v3374h1204v-2892h482v2892h1205v-2892h482v2892h1204v-3374l-722 -722h-1205l-362 361l-120 -120v-1l-241 -240h-1205z" />
    <glyph glyph-name="x" unicode="x" 
d="M0 0v1686l240 241h1l120 121l-361 361v1687h1204v-1446h1205v1446h1205v-1687l-241 -241h-1l-120 -120l362 -362v-1686h-1205v1445h-1205v-1445h-1204z" />
    <glyph glyph-name="y" unicode="y" 
d="M1204 0v1204l-1204 1205v1687h1204v-1205l482 -482v-1l121 -120l602 603v1205h1205v-1687l-1205 -1205v-1204h-1205z" />
    <glyph glyph-name="z" unicode="z" 
d="M0 0v1204l1686 1687h-1686v1205h3614v-1205l-1687 -1687h1687v-1204h-3614z" />
    <glyph glyph-name="braceleft" unicode="{" horiz-adv-x="2409" 
d="M1204 -240l-723 721v964h-481v1205h481v964l723 722h964v-1204h-482v-723l-241 -241h-1l-119 -120l361 -362v-723h482v-1203h-964z" />
    <glyph glyph-name="bar" unicode="|" horiz-adv-x="1445" 
d="M0 -240v4576h1204v-4576h-1204z" />
    <glyph glyph-name="braceright" unicode="}" horiz-adv-x="2409" 
d="M0 -240v1203h481v723l362 362l-120 120h-1l-241 241v723h-481v1204h963l723 -722v-964h482v-1205h-482v-964l-723 -721h-963z" />
    <glyph glyph-name="asciitilde" unicode="~" 
d="M481 963l-481 482v241h963v241h-963v241l481 482h723l241 -241v-241h723v241l241 241h723l482 -482v-241h-964v-241h964v-241l-482 -482h-723l-241 241v241h-723v-241l-241 -241h-723z" />
    <glyph glyph-name="exclamdown" unicode="&#xa1;" horiz-adv-x="1445" 
d="M0 0v2650h1204v-2650h-1204zM0 2891v1205h1204v-1205h-1204z" />
    <glyph glyph-name="cent" unicode="&#xa2;" 
d="M1686 1204v1687h-482v-1687h482zM1686 -240v240h-964l-722 722v2651l722 723h964v240h1205v-240h723v-1205h-723v-1687h723v-1204h-723v-240h-1205z" />
    <glyph glyph-name="sterling" unicode="&#xa3;" 
d="M240 0v1445h-240v1205h240v723l723 723h1928v-1205h-1446v-241h964v-1205h-964v-241h2169v-1204h-3374z" />
    <glyph glyph-name="currency" unicode="&#xa4;" 
d="M2409 963v2169h-1205v-2169h1205zM0 -240v4576h3614v-4576h-3614z" />
    <glyph glyph-name="yen" unicode="&#xa5;" 
d="M1204 0v481h-482v1205h482v241l-1204 1205v964h1204v-482l482 -482v-1l121 -120l602 603v482h1205v-964l-1205 -1205v-241h482v-1205h-482v-481h-1205z" />
    <glyph glyph-name="brokenbar" unicode="&#xa6;" horiz-adv-x="1445" 
d="M0 -240v2167h1204v-2167h-1204zM0 2168v2168h1204v-2168h-1204z" />
    <glyph glyph-name="section" unicode="&#xa7;" 
d="M2168 1686v723h-723v-723h723zM240 0v1204h723v241h-241l-722 723v1205l722 723h2651v-1205h-723v-241h241l723 -723v-1205l-723 -722h-2651z" />
    <glyph glyph-name="dieresis" unicode="&#xa8;" horiz-adv-x="3132" 
d="M722 4336v723h964v-723h-964zM1927 4336v723h964v-723h-964z" />
    <glyph glyph-name="copyright" unicode="&#xa9;" 
d="M722 0l-722 722v2651l722 723h2892v-1205h-2410v-1687h2410v-1204h-2892z" />
    <glyph glyph-name="ordfeminine" unicode="&#xaa;" 
d="M2409 2650v241h-1205v-241h1205zM0 0v3373l722 723h2169l723 -723v-3373h-1205v1445h-1205v-1445h-1204z" />
    <glyph glyph-name="guillemotleft" unicode="&#xab;" horiz-adv-x="2891" 
d="M1204 240l-1204 1205v1205l1204 1205v-1687l-120 -120l119 -121h1v-1687zM2650 240l-1205 1205v1205l1205 1205v-1687l-121 -120l120 -121h1v-1687z" />
    <glyph glyph-name="logicalnot" unicode="&#xac;" 
d="M2409 722v723h-2409v1205h3614v-1928h-1205z" />
    <glyph glyph-name="uni00AD" unicode="&#xad;" 
d="M0 1445v1205h3614v-1205h-3614z" />
    <glyph glyph-name="registered" unicode="&#xae;" 
d="M2409 2650v241h-1205v-241h1205zM0 0v4096h2891l723 -723v-964l-241 -241h-1l-120 -120l362 -362v-1686h-1205v1445h-1205v-1445h-1204z" />
    <glyph glyph-name="macron" unicode="&#xaf;" 
d="M0 2650v1205h3614v-1205h-3614z" />
    <glyph glyph-name="degree" unicode="&#xb0;" 
d="M2409 1204v1687h-1205v-1687h1205zM722 0l-722 722v2651l722 723h2169l723 -723v-2651l-723 -722h-2169z" />
    <glyph glyph-name="plusminus" unicode="&#xb1;" 
d="M0 0v1204h1204v482h-1204v1205h1204v1205h1205v-1205h1205v-1205h-1205v-482h1205v-1204h-3614z" />
    <glyph glyph-name="acute" unicode="&#xb4;" horiz-adv-x="3373" 
d="M963 4336l723 723h1446l-723 -723h-1446z" />
    <glyph glyph-name="mu" unicode="&#xb5;" 
d="M0 -481v4577h1204v-2892h1205v2892h1205v-3374l-723 -722h-1446l-120 120l-121 -120v-481h-1204z" />
    <glyph glyph-name="paragraph" unicode="&#xb6;" 
d="M963 0v1445h-241l-722 723v1205l722 723h2892v-4096h-1205v2891h-241v-2891h-1205z" />
    <glyph glyph-name="periodcentered" unicode="&#xb7;" horiz-adv-x="1445" 
d="M0 1445v1205h1204v-1205h-1204z" />
    <glyph glyph-name="cedilla" unicode="&#xb8;" horiz-adv-x="2891" 
d="M963 -1445v1205h482v240h1205v-722l-723 -723h-964z" />
    <glyph glyph-name="ordmasculine" unicode="&#xba;" 
d="M2409 1204v1687h-1205v-1687h1205zM722 0l-722 722v2651l722 723h2169l723 -723v-2651l-723 -722h-2169z" />
    <glyph glyph-name="guillemotright" unicode="&#xbb;" horiz-adv-x="2891" 
d="M0 240v1687l120 121l-120 120v1687l1204 -1205v-1205zM1445 240v1687h1l120 121l-121 120v1687l1205 -1205v-1205z" />
    <glyph glyph-name="questiondown" unicode="&#xbf;" 
d="M722 0l-722 722v1205l722 723h2410v-482l-723 -723h-1205v-241h2410v-1204h-2892zM1927 2891v1205h1205v-1205h-1205z" />
    <glyph glyph-name="Agrave" unicode="&#xc0;" 
d="M2409 2650v241h-1205v-241h1205zM0 0v3373l722 723h2169l723 -723v-3373h-1205v1445h-1205v-1445h-1204zM1204 4336l-723 723h1446l723 -723h-1446z" />
    <glyph glyph-name="Aacute" unicode="&#xc1;" 
d="M2409 2650v241h-1205v-241h1205zM0 0v3373l722 723h2169l723 -723v-3373h-1205v1445h-1205v-1445h-1204zM963 4336l723 723h1446l-723 -723h-1446z" />
    <glyph glyph-name="Acircumflex" unicode="&#xc2;" 
d="M2409 2650v241h-1205v-241h1205zM0 0v3373l722 723h2169l723 -723v-3373h-1205v1445h-1205v-1445h-1204zM481 4336l723 723h1205l723 -723h-1205v1l-120 120l-121 -121h-1205z" />
    <glyph glyph-name="Atilde" unicode="&#xc3;" 
d="M2409 2650v241h-1205v-241h1205zM0 0v3373l722 723h2169l723 -723v-3373h-1205v1445h-1205v-1445h-1204zM0 4336l722 723h1446l120 -120l121 119v1h1205l-723 -723h-1446v1l-120 120l-121 -121h-1204z" />
    <glyph glyph-name="Adieresis" unicode="&#xc4;" 
d="M2409 2650v241h-1205v-241h1205zM0 0v3373l722 723h2169l723 -723v-3373h-1205v1445h-1205v-1445h-1204zM722 4336v723h964v-723h-964zM1927 4336v723h964v-723h-964z" />
    <glyph glyph-name="Aring" unicode="&#xc5;" 
d="M2409 2650v241h-1205v-241h1205zM1927 4096v240h-241v-240h241zM0 0v3373l722 723v722l241 241h1687l241 -241v-722l723 -723v-3373h-1205v1445h-1205v-1445h-1204z" />
    <glyph glyph-name="AE" unicode="&#xc6;" horiz-adv-x="6264" 
d="M2409 2650v241h-1205v-241h1205zM0 0v3373l722 723h2169v-1l120 -120l121 121h2891v-1205h-2409v-241h1445v-1205h-1445v-241h2409v-1204h-3614v1445h-1205v-1445h-1204z" />
    <glyph glyph-name="Ccedilla" unicode="&#xc7;" 
d="M963 -1445v1205h482v240h-723l-722 722v2651l722 723h2892v-1205h-2410v-1687h2410v-1204h-964v-722l-723 -723h-964z" />
    <glyph glyph-name="Egrave" unicode="&#xc8;" 
d="M0 0v4096h3614v-1205h-2410v-241h1446v-1205h-1446v-241h2410v-1204h-3614zM1204 4336l-723 723h1446l723 -723h-1446z" />
    <glyph glyph-name="Eacute" unicode="&#xc9;" 
d="M0 0v4096h3614v-1205h-2410v-241h1446v-1205h-1446v-241h2410v-1204h-3614zM963 4336l723 723h1446l-723 -723h-1446z" />
    <glyph glyph-name="Ecircumflex" unicode="&#xca;" 
d="M0 0v4096h3614v-1205h-2410v-241h1446v-1205h-1446v-241h2410v-1204h-3614zM481 4336l723 723h1205l723 -723h-1205v1l-120 120l-121 -121h-1205z" />
    <glyph glyph-name="Edieresis" unicode="&#xcb;" 
d="M0 0v4096h3614v-1205h-2410v-241h1446v-1205h-1446v-241h2410v-1204h-3614zM722 4336v723h964v-723h-964zM1927 4336v723h964v-723h-964z" />
    <glyph glyph-name="Igrave" unicode="&#xcc;" horiz-adv-x="2409" 
d="M0 0v1204h481v1687h-481v1205h2168v-1205h-482v-1687h482v-1204h-2168zM481 4336l-721 723h1444l723 -723h-1446z" />
    <glyph glyph-name="Iacute" unicode="&#xcd;" horiz-adv-x="2409" 
d="M0 0v1204h481v1687h-481v1205h2168v-1205h-482v-1687h482v-1204h-2168zM240 4336l723 723h1446l-723 -723h-1446z" />
    <glyph glyph-name="Icircumflex" unicode="&#xce;" horiz-adv-x="2409" 
d="M0 0v1204h481v1687h-481v1205h2168v-1205h-482v-1687h482v-1204h-2168zM-240 4336l721 723h1205l723 -723h-1205v1l-120 120l-121 -121h-1203z" />
    <glyph glyph-name="Idieresis" unicode="&#xcf;" horiz-adv-x="2409" 
d="M0 0v1204h481v1687h-481v1205h2168v-1205h-482v-1687h482v-1204h-2168zM0 4336v723h963v-723h-963zM1204 4336v723h964v-723h-964z" />
    <glyph glyph-name="Eth" unicode="&#xd0;" 
d="M2409 1204v1687h-964v-241h241v-1205h-241v-241h964zM240 0v1445h-240v1205h240v1446h2651l723 -723v-2651l-723 -722h-2651z" />
    <glyph glyph-name="Ntilde" unicode="&#xd1;" 
d="M0 0v3373l722 723h2169l723 -723v-3373h-1205v2891h-1205v-2891h-1204zM0 4336l722 723h1446l120 -120l121 119v1h1205l-723 -723h-1446v1l-120 120l-121 -121h-1204z" />
    <glyph glyph-name="Ograve" unicode="&#xd2;" 
d="M2409 1204v1687h-1205v-1687h1205zM722 0l-722 722v2651l722 723h2169l723 -723v-2651l-723 -722h-2169zM1204 4336l-723 723h1446l723 -723h-1446z" />
    <glyph glyph-name="Oacute" unicode="&#xd3;" 
d="M2409 1204v1687h-1205v-1687h1205zM722 0l-722 722v2651l722 723h2169l723 -723v-2651l-723 -722h-2169zM963 4336l723 723h1446l-723 -723h-1446z" />
    <glyph glyph-name="Ocircumflex" unicode="&#xd4;" 
d="M2409 1204v1687h-1205v-1687h1205zM722 0l-722 722v2651l722 723h2169l723 -723v-2651l-723 -722h-2169zM481 4336l723 723h1205l723 -723h-1205v1l-120 120l-121 -121h-1205z" />
    <glyph glyph-name="Otilde" unicode="&#xd5;" 
d="M2409 1204v1687h-1205v-1687h1205zM722 0l-722 722v2651l722 723h2169l723 -723v-2651l-723 -722h-2169zM0 4336l722 723h1446l120 -120l121 119v1h1205l-723 -723h-1446v1l-120 120l-121 -121h-1204z" />
    <glyph glyph-name="Odieresis" unicode="&#xd6;" 
d="M2409 1204v1687h-1205v-1687h1205zM722 0l-722 722v2651l722 723h2169l723 -723v-2651l-723 -722h-2169zM722 4336v723h964v-723h-964zM1927 4336v723h964v-723h-964z" />
    <glyph glyph-name="multiply" unicode="&#xd7;" 
d="M0 0v1686l240 241h1l120 121l-361 361v1687h1204v-1446h1205v1446h1205v-1687l-241 -241h-1l-120 -120l362 -362v-1686h-1205v1445h-1205v-1445h-1204z" />
    <glyph glyph-name="Oslash" unicode="&#xd8;" 
d="M2409 1204v482l-482 -482h482zM1204 2409l482 482h-482v-482zM0 0v1204l120 121l-120 120v1928l722 723h1446l120 -121l121 120v1h1205v-1205l-121 -121l120 -120h1v-1928l-723 -722h-1446l-120 120l-121 -120h-1204z" />
    <glyph glyph-name="Ugrave" unicode="&#xd9;" 
d="M722 0l-722 722v3374h1204v-2892h1205v2892h1205v-3374l-723 -722h-2169zM1204 4336l-723 723h1446l723 -723h-1446z" />
    <glyph glyph-name="Uacute" unicode="&#xda;" 
d="M722 0l-722 722v3374h1204v-2892h1205v2892h1205v-3374l-723 -722h-2169zM963 4336l723 723h1446l-723 -723h-1446z" />
    <glyph glyph-name="Ucircumflex" unicode="&#xdb;" 
d="M722 0l-722 722v3374h1204v-2892h1205v2892h1205v-3374l-723 -722h-2169zM481 4336l723 723h1205l723 -723h-1205v1l-120 120l-121 -121h-1205z" />
    <glyph glyph-name="Udieresis" unicode="&#xdc;" 
d="M722 0l-722 722v3374h1204v-2892h1205v2892h1205v-3374l-723 -722h-2169zM722 4336v723h964v-723h-964zM1927 4336v723h964v-723h-964z" />
    <glyph glyph-name="Yacute" unicode="&#xdd;" 
d="M1204 0v1204l-1204 1205v1687h1204v-1205l482 -482v-1l121 -120l602 603v1205h1205v-1687l-1205 -1205v-1204h-1205zM963 4336l723 723h1446l-723 -723h-1446z" />
    <glyph glyph-name="Thorn" unicode="&#xde;" 
d="M2409 1927v241h-1205v-241h1205zM0 0v4096h1204v-723h1687l723 -723v-1205l-723 -723h-1687v-722h-1204z" />
    <glyph glyph-name="germandbls" unicode="&#xdf;" 
d="M2409 2650v241h-1205v-241h1205zM0 0v3373l722 723h2169l723 -723v-964l-241 -241h-1l-120 -120l362 -362v-964l-723 -722h-1205v1204h723v241h-1205v-1445h-1204z" />
    <glyph glyph-name="agrave" unicode="&#xe0;" 
d="M2409 2650v241h-1205v-241h1205zM0 0v3373l722 723h2169l723 -723v-3373h-1205v1445h-1205v-1445h-1204zM1204 4336l-723 723h1446l723 -723h-1446z" />
    <glyph glyph-name="aacute" unicode="&#xe1;" 
d="M2409 2650v241h-1205v-241h1205zM0 0v3373l722 723h2169l723 -723v-3373h-1205v1445h-1205v-1445h-1204zM963 4336l723 723h1446l-723 -723h-1446z" />
    <glyph glyph-name="acircumflex" unicode="&#xe2;" 
d="M2409 2650v241h-1205v-241h1205zM0 0v3373l722 723h2169l723 -723v-3373h-1205v1445h-1205v-1445h-1204zM481 4336l723 723h1205l723 -723h-1205v1l-120 120l-121 -121h-1205z" />
    <glyph glyph-name="atilde" unicode="&#xe3;" 
d="M2409 2650v241h-1205v-241h1205zM0 0v3373l722 723h2169l723 -723v-3373h-1205v1445h-1205v-1445h-1204zM0 4336l722 723h1446l120 -120l121 119v1h1205l-723 -723h-1446v1l-120 120l-121 -121h-1204z" />
    <glyph glyph-name="adieresis" unicode="&#xe4;" 
d="M2409 2650v241h-1205v-241h1205zM0 0v3373l722 723h2169l723 -723v-3373h-1205v1445h-1205v-1445h-1204zM722 4336v723h964v-723h-964zM1927 4336v723h964v-723h-964z" />
    <glyph glyph-name="aring" unicode="&#xe5;" 
d="M2409 2650v241h-1205v-241h1205zM1927 4096v240h-241v-240h241zM0 0v3373l722 723v722l241 241h1687l241 -241v-722l723 -723v-3373h-1205v1445h-1205v-1445h-1204z" />
    <glyph glyph-name="ae" unicode="&#xe6;" horiz-adv-x="6264" 
d="M2409 2650v241h-1205v-241h1205zM0 0v3373l722 723h2169v-1l120 -120l121 121h2891v-1205h-2409v-241h1445v-1205h-1445v-241h2409v-1204h-3614v1445h-1205v-1445h-1204z" />
    <glyph glyph-name="ccedilla" unicode="&#xe7;" 
d="M963 -1445v1205h482v240h-723l-722 722v2651l722 723h2892v-1205h-2410v-1687h2410v-1204h-964v-722l-723 -723h-964z" />
    <glyph glyph-name="egrave" unicode="&#xe8;" 
d="M0 0v4096h3614v-1205h-2410v-241h1446v-1205h-1446v-241h2410v-1204h-3614zM1204 4336l-723 723h1446l723 -723h-1446z" />
    <glyph glyph-name="eacute" unicode="&#xe9;" 
d="M0 0v4096h3614v-1205h-2410v-241h1446v-1205h-1446v-241h2410v-1204h-3614zM963 4336l723 723h1446l-723 -723h-1446z" />
    <glyph glyph-name="ecircumflex" unicode="&#xea;" 
d="M0 0v4096h3614v-1205h-2410v-241h1446v-1205h-1446v-241h2410v-1204h-3614zM481 4336l723 723h1205l723 -723h-1205v1l-120 120l-121 -121h-1205z" />
    <glyph glyph-name="edieresis" unicode="&#xeb;" 
d="M0 0v4096h3614v-1205h-2410v-241h1446v-1205h-1446v-241h2410v-1204h-3614zM722 4336v723h964v-723h-964zM1927 4336v723h964v-723h-964z" />
    <glyph glyph-name="igrave" unicode="&#xec;" horiz-adv-x="2409" 
d="M0 0v1204h481v1687h-481v1205h2168v-1205h-482v-1687h482v-1204h-2168zM481 4336l-721 723h1444l723 -723h-1446z" />
    <glyph glyph-name="iacute" unicode="&#xed;" horiz-adv-x="2409" 
d="M0 0v1204h481v1687h-481v1205h2168v-1205h-482v-1687h482v-1204h-2168zM240 4336l723 723h1446l-723 -723h-1446z" />
    <glyph glyph-name="icircumflex" unicode="&#xee;" horiz-adv-x="2409" 
d="M0 0v1204h481v1687h-481v1205h2168v-1205h-482v-1687h482v-1204h-2168zM-240 4336l721 723h1205l723 -723h-1205v1l-120 120l-121 -121h-1203z" />
    <glyph glyph-name="idieresis" unicode="&#xef;" horiz-adv-x="2409" 
d="M0 0v1204h481v1687h-481v1205h2168v-1205h-482v-1687h482v-1204h-2168zM0 4336v723h963v-723h-963zM1204 4336v723h964v-723h-964z" />
    <glyph glyph-name="eth" unicode="&#xf0;" 
d="M2409 1204v1687h-964v-241h241v-1205h-241v-241h964zM240 0v1445h-240v1205h240v1446h2651l723 -723v-2651l-723 -722h-2651z" />
    <glyph glyph-name="ntilde" unicode="&#xf1;" 
d="M0 0v3373l722 723h2169l723 -723v-3373h-1205v2891h-1205v-2891h-1204zM0 4336l722 723h1446l120 -120l121 119v1h1205l-723 -723h-1446v1l-120 120l-121 -121h-1204z" />
    <glyph glyph-name="ograve" unicode="&#xf2;" 
d="M2409 1204v1687h-1205v-1687h1205zM722 0l-722 722v2651l722 723h2169l723 -723v-2651l-723 -722h-2169zM1204 4336l-723 723h1446l723 -723h-1446z" />
    <glyph glyph-name="oacute" unicode="&#xf3;" 
d="M2409 1204v1687h-1205v-1687h1205zM722 0l-722 722v2651l722 723h2169l723 -723v-2651l-723 -722h-2169zM963 4336l723 723h1446l-723 -723h-1446z" />
    <glyph glyph-name="ocircumflex" unicode="&#xf4;" 
d="M2409 1204v1687h-1205v-1687h1205zM722 0l-722 722v2651l722 723h2169l723 -723v-2651l-723 -722h-2169zM481 4336l723 723h1205l723 -723h-1205v1l-120 120l-121 -121h-1205z" />
    <glyph glyph-name="otilde" unicode="&#xf5;" 
d="M2409 1204v1687h-1205v-1687h1205zM722 0l-722 722v2651l722 723h2169l723 -723v-2651l-723 -722h-2169zM0 4336l722 723h1446l120 -120l121 119v1h1205l-723 -723h-1446v1l-120 120l-121 -121h-1204z" />
    <glyph glyph-name="odieresis" unicode="&#xf6;" 
d="M2409 1204v1687h-1205v-1687h1205zM722 0l-722 722v2651l722 723h2169l723 -723v-2651l-723 -722h-2169zM722 4336v723h964v-723h-964zM1927 4336v723h964v-723h-964z" />
    <glyph glyph-name="divide" unicode="&#xf7;" 
d="M1204 0v1204h1205v-1204h-1205zM0 1445v1205h3614v-1205h-3614zM1204 2891v1205h1205v-1205h-1205z" />
    <glyph glyph-name="oslash" unicode="&#xf8;" 
d="M2409 1204v482l-482 -482h482zM1204 2409l482 482h-482v-482zM0 0v1204l120 121l-120 120v1928l722 723h1446l120 -121l121 120v1h1205v-1205l-121 -121l120 -120h1v-1928l-723 -722h-1446l-120 120l-121 -120h-1204z" />
    <glyph glyph-name="ugrave" unicode="&#xf9;" 
d="M722 0l-722 722v3374h1204v-2892h1205v2892h1205v-3374l-723 -722h-2169zM1204 4336l-723 723h1446l723 -723h-1446z" />
    <glyph glyph-name="uacute" unicode="&#xfa;" 
d="M722 0l-722 722v3374h1204v-2892h1205v2892h1205v-3374l-723 -722h-2169zM963 4336l723 723h1446l-723 -723h-1446z" />
    <glyph glyph-name="ucircumflex" unicode="&#xfb;" 
d="M722 0l-722 722v3374h1204v-2892h1205v2892h1205v-3374l-723 -722h-2169zM481 4336l723 723h1205l723 -723h-1205v1l-120 120l-121 -121h-1205z" />
    <glyph glyph-name="udieresis" unicode="&#xfc;" 
d="M722 0l-722 722v3374h1204v-2892h1205v2892h1205v-3374l-723 -722h-2169zM722 4336v723h964v-723h-964zM1927 4336v723h964v-723h-964z" />
    <glyph glyph-name="yacute" unicode="&#xfd;" 
d="M1204 0v1204l-1204 1205v1687h1204v-1205l482 -482v-1l121 -120l602 603v1205h1205v-1687l-1205 -1205v-1204h-1205zM963 4336l723 723h1446l-723 -723h-1446z" />
    <glyph glyph-name="thorn" unicode="&#xfe;" 
d="M2409 1927v241h-1205v-241h1205zM0 0v4096h1204v-723h1687l723 -723v-1205l-723 -723h-1687v-722h-1204z" />
    <glyph glyph-name="ydieresis" unicode="&#xff;" 
d="M1204 0v1204l-1204 1205v1687h1204v-1205l482 -482v-1l121 -120l602 603v1205h1205v-1687l-1205 -1205v-1204h-1205zM722 4336v723h964v-723h-964zM1927 4336v723h964v-723h-964z" />
    <glyph glyph-name="OE" unicode="&#x152;" horiz-adv-x="6264" 
d="M2409 1204v1687h-1205v-1687h1205zM722 0l-722 722v2651l722 723h2169v-1l120 -120l121 121h2891v-1205h-2409v-241h1445v-1205h-1445v-241h2409v-1204h-2891l-121 120l-120 -120h-2169z" />
    <glyph glyph-name="oe" unicode="&#x153;" horiz-adv-x="6264" 
d="M2409 1204v1687h-1205v-1687h1205zM722 0l-722 722v2651l722 723h2169v-1l120 -120l121 121h2891v-1205h-2409v-241h1445v-1205h-1445v-241h2409v-1204h-2891l-121 120l-120 -120h-2169z" />
    <glyph glyph-name="Ydieresis" unicode="&#x178;" 
d="M1204 0v1204l-1204 1205v1687h1204v-1205l482 -482v-1l121 -120l602 603v1205h1205v-1687l-1205 -1205v-1204h-1205zM722 4336v723h964v-723h-964zM1927 4336v723h964v-723h-964z" />
    <glyph glyph-name="emdash" unicode="&#x2014;" 
d="M0 1445v1205h3614v-1205h-3614z" />
    <glyph glyph-name="quoteleft" unicode="&#x2018;" horiz-adv-x="1445" 
d="M0 2409v1687h1204v-1687h-1204z" />
    <glyph glyph-name="quoteright" unicode="&#x2019;" horiz-adv-x="1445" 
d="M0 2409v1687h1204v-1687h-1204z" />
    <glyph glyph-name="quotesinglbase" unicode="&#x201a;" horiz-adv-x="1445" 
d="M0 -481v1685h1204v-1685h-1204z" />
    <glyph glyph-name="quotedblleft" unicode="&#x201c;" horiz-adv-x="2891" 
d="M0 2409v1687h1204v-1687h-1204zM1445 2409v1687h1205v-1687h-1205z" />
    <glyph glyph-name="quotedblright" unicode="&#x201d;" horiz-adv-x="2891" 
d="M0 2409v1687h1204v-1687h-1204zM1445 2409v1687h1205v-1687h-1205z" />
    <glyph glyph-name="quotedblbase" unicode="&#x201e;" horiz-adv-x="2891" 
d="M0 -481v1685h1204v-1685h-1204zM1445 -481v1685h1205v-1685h-1205z" />
    <glyph glyph-name="dagger" unicode="&#x2020;" 
d="M1204 0v1686h-1204v1205h1204v1205h1205v-1205h1205v-1205h-1205v-1686h-1205z" />
    <glyph glyph-name="bullet" unicode="&#x2022;" horiz-adv-x="1927" 
d="M240 1204l-240 241v1205l240 241h1205l241 -241v-1205l-241 -241h-1205z" />
    <glyph glyph-name="ellipsis" unicode="&#x2026;" horiz-adv-x="4818" 
d="M0 0v1204h1204v-1204h-1204zM1686 0v1204h1205v-1204h-1205zM3373 0v1204h1204v-1204h-1204z" />
    <glyph glyph-name="guilsinglleft" unicode="&#x2039;" horiz-adv-x="1445" 
d="M1204 240l-1204 1205v1205l1204 1205v-1687l-120 -120l119 -121h1v-1687z" />
    <glyph glyph-name="guilsinglright" unicode="&#x203a;" horiz-adv-x="1445" 
d="M0 240v1687l120 121l-120 120v1687l1204 -1205v-1205z" />
    <glyph glyph-name="Euro" unicode="&#x20ac;" 
d="M963 0l-723 722v723h-240v1205h240v723l723 723h2651v-1205h-2169v-241h964v-1205h-964v-241h2169v-1204h-2651z" />
    <glyph glyph-name="trademark" unicode="&#x2122;" horiz-adv-x="8432" 
d="M1204 0v2891h-1204v1205h5541l241 -241v-1l121 -120l361 362h1205l723 -723v-3373h-1205v2891h-482v-2891h-1205v2891h-482v-2891h-1204v2891h-1205v-2891h-1205z" />
  </font>
</defs>
</svg>
